<?xml version="1.0"?>
<svg width="1080" height="1080" xmlns="http://www.w3.org/2000/svg" xmlns:svg="http://www.w3.org/2000/svg" preserveAspectRatio="xMidYMid meet" version="1.0">
 <g class="layer">
  <title>Layer 1</title>
  <g fill="#000000" filter="url(#svg_1_blur)" id="svg_1" transform="matrix(0.190233 0 0 -0.189662 -0.451169 -2.85634)">
   <path d="m2630.75,-62c-759,-61 -1448,-413 -1936,-989c-342,-403 -557,-877 -640,-1415c-33,-209 -33,-609 0,-818c99,-641 378,-1178 847,-1631c649,-628 1582,-902 2473,-729c329,64 592,161 868,319c671,385 1150,1015 1337,1759c63,251 79,390 80,686c0,272 -10,382 -56,595c-169,785 -666,1464 -1363,1862c-430,245 -912,371 -1405,366c-91,-1 -183,-3 -205,-5zm498,-258c778,-91 1452,-511 1881,-1172c200,-308 319,-630 383,-1028c24,-151 24,-564 0,-713c-94,-582 -335,-1063 -731,-1457c-393,-392 -860,-631 -1421,-726c-175,-30 -568,-33 -745,-6c-411,64 -752,194 -1080,412c-574,383 -981,1004 -1100,1680c-68,385 -48,804 55,1160c92,318 256,634 463,895c177,222 451,462 698,609c468,280 1061,409 1597,346z" fill="#530d56" id="svg_2"/>
   <path d="m2680.75,-491c-252,-25 -398,-55 -595,-120c-151,-51 -372,-154 -498,-232c-265,-165 -549,-436 -720,-690c-283,-416 -426,-914 -408,-1412c13,-369 86,-659 246,-985c129,-263 264,-449 476,-655c366,-355 782,-564 1299,-651c176,-30 520,-32 700,-5c967,147 1745,846 1980,1781c54,216 69,342 69,585c0,359 -59,646 -196,954c-337,757 -1027,1287 -1831,1407c-125,18 -432,32 -522,23zm-1017,-1786c3,-14 -6,-17 -55,-20l-58,-3l0,-295l0,-295l188,-3l187,-2l0,300l0,300l-56,0c-47,0 -55,3 -52,18c3,16 27,17 301,20c292,2 297,2 297,-18c0,-18 -7,-20 -55,-20l-55,0l0,-635l0,-635l55,0c48,0 55,-2 55,-20c0,-20 -7,-20 -300,-20c-293,0 -300,0 -300,20c0,18 7,20 55,20l55,0l0,310l0,310l-190,0l-190,0l0,-310l0,-309l57,-3c46,-2 59,-7 61,-20c3,-17 -17,-18 -303,-18c-286,0 -306,1 -303,18c2,13 15,18 61,20l57,3l0,634l0,635l-60,0c-43,0 -60,4 -60,13c0,8 3,17 7,20c4,4 140,6 302,5c269,-3 296,-5 299,-20zm1477,13c164,-11 250,-30 331,-75c116,-64 160,-159 152,-330c-3,-72 -10,-114 -25,-147c-65,-145 -224,-220 -504,-236l-109,-6l0,-254l0,-253l120,0c113,0 120,-1 120,-20c0,-20 -7,-20 -370,-20c-363,0 -370,0 -370,20c0,18 7,20 65,20l65,0l0,635l0,635l-65,0c-47,0 -65,4 -65,13c0,8 3,17 7,20c9,10 485,8 648,-2zm1495,-11c0,-17 -7,-20 -49,-20l-50,0l-3,-482c-4,-415 -7,-491 -21,-541c-26,-90 -62,-150 -117,-200c-174,-157 -573,-135 -651,36c-39,87 -11,200 61,242c45,26 146,27 185,1c58,-38 79,-112 54,-198c-9,-36 -12,-38 -49,-38c-30,0 -40,-4 -45,-21c-16,-50 21,-89 85,-89c50,0 80,18 98,57c15,34 17,98 20,636l3,597l-70,0c-64,0 -71,2 -71,20c0,20 7,20 310,20c303,0 310,0 310,-20z" fill="#530d56" id="svg_3"/>
   <path d="m2993.75,-2301c-5,-4 -8,-166 -8,-361l0,-353l45,0c58,0 120,25 144,59c31,43 49,124 56,248c12,213 -20,354 -89,387c-38,18 -137,32 -148,20z" fill="#530d56" id="svg_4"/>
  </g>
 </g>
 <defs>
  <filter id="svg_1_blur">
   <feGaussianBlur in="SourceGraphic" stdDeviation="1.5"/>
  </filter>
 </defs>
</svg>